{
    "asset" : {
        "generator" : "Khronos glTF Blender I/O v1.2.74",
        "version" : "2.0"
    },
    "scene" : 0,
    "scenes" : [
        {
            "name" : "Scene",
            "nodes" : [
                0,
                1
            ]
        }
    ],
    "nodes" : [
        {
            "mesh" : 0,
            "name" : "car2",
            "rotation" : [
                0.4999999701976776,
                0.5,
                -0.5,
                0.5
            ]
        },
        {
            "name" : "Light",
            "rotation" : [
                0.16907575726509094,
                0.7558803558349609,
                -0.27217137813568115,
                0.570947527885437
            ],
            "translation" : [
                4.076245307922363,
                5.903861999511719,
                -1.0054539442062378
            ]
        }
    ],
    "materials" : [
        {
            "doubleSided" : true,
            "emissiveFactor" : [
                0,
                0,
                0
            ],
            "name" : "Material.car2",
            "pbrMetallicRoughness" : {
                "baseColorTexture" : {
                    "index" : 0,
                    "texCoord" : 0
                },
                "metallicFactor" : 1,
                "roughnessFactor" : 0.5527864098548889
            }
        }
    ],
    "meshes" : [
        {
            "name" : "car2.017",
            "primitives" : [
                {
                    "attributes" : {
                        "POSITION" : 0,
                        "NORMAL" : 1,
                        "TEXCOORD_0" : 2
                    },
                    "indices" : 3,
                    "material" : 0
                }
            ]
        }
    ],
    "textures" : [
        {
            "source" : 0
        }
    ],
    "images" : [
        {
            "bufferView" : 4,
            "mimeType" : "image/png",
            "name" : "Car Texture 1"
        }
    ],
    "accessors" : [
        {
            "bufferView" : 0,
            "componentType" : 5126,
            "count" : 4302,
            "max" : [
                2.091134786605835,
                0.9840434789657593,
                5.960464477539063e-08
            ],
            "min" : [
                -1.8678845167160034,
                -0.984043538570404,
                -1.3013598918914795
            ],
            "type" : "VEC3"
        },
        {
            "bufferView" : 1,
            "componentType" : 5126,
            "count" : 4302,
            "type" : "VEC3"
        },
        {
            "bufferView" : 2,
            "componentType" : 5126,
            "count" : 4302,
            "type" : "VEC2"
        },
        {
            "bufferView" : 3,
            "componentType" : 5123,
            "count" : 11394,
            "type" : "SCALAR"
        }
    ],
    "bufferViews" : [
        {
            "buffer" : 0,
            "byteLength" : 51624,
            "byteOffset" : 0
        },
        {
            "buffer" : 0,
            "byteLength" : 51624,
            "byteOffset" : 51624
        },
        {
            "buffer" : 0,
            "byteLength" : 34416,
            "byteOffset" : 103248
        },
        {
            "buffer" : 0,
            "byteLength" : 22788,
            "byteOffset" : 137664
        },
        {
            "buffer" : 0,
            "byteLength" : 10710,
            "byteOffset" : 160452
        }
    ],
    "buffers" : [
        {
            "byteLength" : 171164,
            "uri" : "data:application/octet-stream;base64,"
        }
    ]
}
